<svg xmlns="http://www.w3.org/2000/svg" viewBox="0 0 512 512">
  <defs>
    <linearGradient id="grad1" x1="0%" y1="0%" x2="100%" y2="100%">
      <stop offset="0%" style="stop-color:#4F46E5;stop-opacity:1" /> <!-- Indigo-600 -->
      <stop offset="100%" style="stop-color:#4338CA;stop-opacity:1" /> <!-- Indigo-700 -->
    </linearGradient>
  </defs>
  
  <!-- Background Circle (Optional, uncomment if you want a solid background) -->
  <!-- <circle cx="256" cy="256" r="240" fill="#4F46E5" /> -->

  <!-- Graduation Cap -->
  <path fill="url(#grad1)" d="M256 32L32 144l224 112 224-112L256 32zm0 252l-164-82v108c0 38.8 68.8 72 164 72s164-33.2 164-72V202l-164 82z"/>
  
  <!-- Tassel -->
  <path fill="#F59E0B" d="M470 144v96c0 8.8-7.2 16-16 16s-16-7.2-16-16v-80l-28-14 60-2z" />
  
  <!-- Play Button Overlay/Accent -->
  <circle cx="256" cy="270" r="60" fill="white" opacity="0.9"/>
  <path d="M280 270l-35-20v40l35-20z" fill="#4F46E5" />
</svg>
